<?xml version="1.0" encoding="UTF-8"?>
<svg version="1.1" xmlns="http://www.w3.org/2000/svg" width="115" height="115">
<path d="M0 0 C2.31693613 1.97956641 4.12432653 4.09989634 6.01171875 6.49609375 C7.17574219 7.95789063 7.17574219 7.95789063 8.36328125 9.44921875 C9.58144531 10.98835937 9.58144531 10.98835937 10.82421875 12.55859375 C12.50369282 14.62778705 14.1953484 16.68657024 15.88671875 18.74609375 C17.19921875 20.35026042 18.51171875 21.95442708 19.82421875 23.55859375 C25.40491639 22.8391668 29.3232565 19.93121279 33.984375 16.95703125 C36.82421875 15.55859375 36.82421875 15.55859375 38.9453125 15.5546875 C41.61891634 16.98320348 42.97512017 18.8471685 44.82421875 21.24609375 C49.06057246 26.63524488 53.47371001 31.82559962 58.01367188 36.96166992 C61.82421875 41.34020631 61.82421875 41.34020631 61.82421875 43.55859375 C62.48421875 43.55859375 63.14421875 43.55859375 63.82421875 43.55859375 C66.04594946 45.80516279 66.77808985 47.20098015 67.1849823 50.35540771 C67.17832047 51.43018372 67.17165863 52.50495972 67.16479492 53.61230469 C67.16443237 54.85028809 67.16406982 56.08827148 67.16369629 57.36376953 C67.14834839 58.66040527 67.13300049 59.95704102 67.1171875 61.29296875 C67.11416626 62.48809082 67.11114502 63.68321289 67.10803223 64.91455078 C67.09233511 69.3793196 67.0504512 73.84396534 67.01171875 78.30859375 C66.94984375 88.29109375 66.88796875 98.27359375 66.82421875 108.55859375 C35.47421875 108.55859375 4.12421875 108.55859375 -28.17578125 108.55859375 C-29.30274037 96.16204338 -29.30274037 96.16204338 -29.30859375 90.7890625 C-29.30988281 89.63341797 -29.31117187 88.47777344 -29.3125 87.28710938 C-29.30863281 86.11857422 -29.30476563 84.95003906 -29.30078125 83.74609375 C-29.30658203 81.96428711 -29.30658203 81.96428711 -29.3125 80.14648438 C-29.31121094 78.99728516 -29.30992188 77.84808594 -29.30859375 76.6640625 C-29.30746582 75.63434326 -29.30633789 74.60462402 -29.30517578 73.54370117 C-29.1722643 70.47745841 -28.7417482 67.57249419 -28.17578125 64.55859375 C-28.98982422 64.97431641 -28.98982422 64.97431641 -29.8203125 65.3984375 C-30.89345703 65.94177734 -30.89345703 65.94177734 -31.98828125 66.49609375 C-33.04982422 67.03556641 -33.04982422 67.03556641 -34.1328125 67.5859375 C-36.17578125 68.55859375 -36.17578125 68.55859375 -39.17578125 69.55859375 C-39.17578125 79.78859375 -39.17578125 90.01859375 -39.17578125 100.55859375 C-37.19578125 100.55859375 -35.21578125 100.55859375 -33.17578125 100.55859375 C-32.17578125 101.55859375 -32.17578125 101.55859375 -32.11328125 105.12109375 C-32.13390625 106.25546875 -32.15453125 107.38984375 -32.17578125 108.55859375 C-35.17578125 109.55859375 -35.17578125 109.55859375 -48.17578125 108.55859375 C-48.17578125 93.70859375 -48.17578125 78.85859375 -48.17578125 63.55859375 C-35.80078125 56.93359375 -35.80078125 56.93359375 -31.96337891 54.88427734 C-26.05657135 51.7124962 -20.23469353 48.45575553 -14.5078125 44.96972656 C-10.67132153 42.64823182 -6.7733462 40.4406889 -2.86328125 38.24609375 C-2.09177734 37.80458984 -1.32027344 37.36308594 -0.52539062 36.90820312 C3.22772214 34.80452704 6.46725505 33.01951007 10.82421875 32.55859375 C12.14421875 34.53859375 13.46421875 36.51859375 14.82421875 38.55859375 C14.31890625 38.88472656 13.81359375 39.21085937 13.29296875 39.546875 C12.64328125 39.98386719 11.99359375 40.42085937 11.32421875 40.87109375 C10.67453125 41.30035156 10.02484375 41.72960938 9.35546875 42.171875 C8.85015625 42.62949219 8.34484375 43.08710937 7.82421875 43.55859375 C7.82421875 44.54859375 7.82421875 45.53859375 7.82421875 46.55859375 C10.46421875 46.88859375 13.10421875 47.21859375 15.82421875 47.55859375 C16.07421875 49.80859375 16.07421875 49.80859375 15.82421875 52.55859375 C14.53188268 53.93170082 13.19984729 55.26894199 11.82421875 56.55859375 C11.82421875 57.54859375 11.82421875 58.53859375 11.82421875 59.55859375 C12.81421875 59.55859375 13.80421875 59.55859375 14.82421875 59.55859375 C14.82421875 58.56859375 14.82421875 57.57859375 14.82421875 56.55859375 C15.48421875 56.55859375 16.14421875 56.55859375 16.82421875 56.55859375 C16.92734375 57.81671875 17.03046875 59.07484375 17.13671875 60.37109375 C17.43814123 63.64616332 17.43814123 63.64616332 19.44921875 66.12109375 C19.90296875 66.59546875 20.35671875 67.06984375 20.82421875 67.55859375 C20.51171875 71.24609375 20.51171875 71.24609375 19.82421875 74.55859375 C14.19921875 75.68359375 14.19921875 75.68359375 10.82421875 74.55859375 C10.59635417 72.57291667 10.36848958 70.58723958 10.140625 68.6015625 C9.8525114 66.36462982 9.8525114 66.36462982 8.82421875 63.55859375 C9.09993014 61.54983933 9.42657612 59.54680688 9.82421875 57.55859375 C8.83421875 57.88859375 7.84421875 58.21859375 6.82421875 58.55859375 C6.82421875 60.86859375 6.82421875 63.17859375 6.82421875 65.55859375 C7.15421875 65.55859375 7.48421875 65.55859375 7.82421875 65.55859375 C7.82421875 68.52859375 7.82421875 71.49859375 7.82421875 74.55859375 C5.18421875 74.55859375 2.54421875 74.55859375 -0.17578125 74.55859375 C-0.17578125 71.91859375 -0.17578125 69.27859375 -0.17578125 66.55859375 C0.81421875 66.22859375 1.80421875 65.89859375 2.82421875 65.55859375 C3.15421875 63.24859375 3.48421875 60.93859375 3.82421875 58.55859375 C2.83421875 58.22859375 1.84421875 57.89859375 0.82421875 57.55859375 C0.82421875 57.22859375 0.82421875 56.89859375 0.82421875 56.55859375 C3.13421875 56.22859375 5.44421875 55.89859375 7.82421875 55.55859375 C7.37046875 55.18734375 6.91671875 54.81609375 6.44921875 54.43359375 C4.35846095 52.02118091 3.76608851 49.58076715 2.82421875 46.55859375 C-0.48981094 48.36830735 -3.80174145 50.18182856 -7.11328125 51.99609375 C-8.05880859 52.51236328 -9.00433594 53.02863281 -9.97851562 53.56054688 C-10.87763672 54.05361328 -11.77675781 54.54667969 -12.703125 55.0546875 C-13.53577881 55.51029053 -14.36843262 55.96589355 -15.22631836 56.43530273 C-17.11484969 57.4111126 -17.11484969 57.4111126 -18.17578125 58.55859375 C-18.33618281 61.65924561 -18.43549027 64.74065092 -18.4921875 67.84375 C-18.51083862 68.66838745 -18.52948975 69.4930249 -18.54870605 70.34265137 C-18.61721839 73.43535221 -18.67722976 76.52823663 -18.73828125 79.62109375 C-18.88265625 86.53046875 -19.02703125 93.43984375 -19.17578125 100.55859375 C6.56421875 100.55859375 32.30421875 100.55859375 58.82421875 100.55859375 C58.70046875 92.90671875 58.57671875 85.25484375 58.44921875 77.37109375 C58.39822021 73.75877808 58.39822021 73.75877808 58.34619141 70.07348633 C58.31097599 68.15835186 58.27505369 66.2432302 58.23828125 64.328125 C58.22692139 63.33889038 58.21556152 62.34965576 58.20385742 61.33044434 C58.18379639 60.37682007 58.16373535 59.4231958 58.14306641 58.44067383 C58.12974274 57.61682693 58.11641907 56.79298004 58.10269165 55.94416809 C57.78486132 53.22143319 56.93778245 51.05241819 55.82421875 48.55859375 C55.16421875 48.55859375 54.50421875 48.55859375 53.82421875 48.55859375 C52.16015625 46.72265625 52.16015625 46.72265625 50.19921875 44.18359375 C49.49539062 43.28125 48.7915625 42.37890625 48.06640625 41.44921875 C47.32648438 40.4953125 46.5865625 39.54140625 45.82421875 38.55859375 C44.32731485 36.68112106 42.82747848 34.80598131 41.32421875 32.93359375 C40.15755208 31.47526042 38.99088542 30.01692708 37.82421875 28.55859375 C34.80155172 29.15510681 31.80696017 29.78529042 28.82421875 30.55859375 C29.21106519 35.55996554 31.83905531 38.19631178 35.19921875 41.62109375 C43.82421875 50.61669922 43.82421875 50.61669922 43.82421875 53.55859375 C44.48421875 53.55859375 45.14421875 53.55859375 45.82421875 53.55859375 C48.3632677 57.36716718 48.09508235 60.42998332 48.0546875 64.83984375 C48.05422928 65.64973755 48.05377106 66.45963135 48.05329895 67.29406738 C48.05027954 69.00546739 48.0424025 70.71686472 48.0300293 72.42822266 C48.01178831 75.0486016 48.00951957 77.66862672 48.00976562 80.2890625 C48.00484958 81.95182597 47.99902089 83.61458705 47.9921875 85.27734375 C47.99107468 86.06177856 47.98996185 86.84621338 47.98881531 87.65441895 C47.96066929 90.87874892 47.85101598 93.47820205 46.82421875 96.55859375 C44.18421875 96.55859375 41.54421875 96.55859375 38.82421875 96.55859375 C37.80816698 92.46879223 37.82583792 88.83914068 38.04296875 84.640625 C38.08974419 83.28979794 38.13393138 81.93887925 38.17578125 80.58789062 C38.24324092 78.48368657 38.32341691 76.38459409 38.44824219 74.28295898 C38.99603597 65.5250455 38.99603597 65.5250455 35.90820312 57.49731445 C33.6605013 55.01215676 31.31192572 52.79890737 28.82421875 50.55859375 C27.62540334 49.10536055 26.45266259 47.62962272 25.32421875 46.12109375 C20.02820028 39.18612268 14.53991242 32.41823237 8.69921875 25.93359375 C4.84048232 21.64869165 1.30191841 17.15567799 -2.17578125 12.55859375 C-4.79297121 13.20287595 -4.79297121 13.20287595 -8.17578125 14.55859375 C-9.03042969 14.77644531 -9.88507812 14.99429687 -10.765625 15.21875 C-14.32923936 16.56341367 -15.87858512 17.45934052 -18.17578125 20.55859375 C-19.06510213 25.45034242 -18.99685044 30.37658612 -18.80200195 35.33081055 C-18.727391 38.16763382 -18.68886089 40.76165918 -19.17578125 43.55859375 C-22.30627883 46.55937458 -23.84302523 47.55859375 -28.17578125 47.55859375 C-28.60343891 43.95311068 -28.86751348 40.35981821 -29.04150391 36.73339844 C-29.1358461 35.2053979 -29.269262 33.67955295 -29.43115234 32.15722656 C-30.0329335 26.22194503 -30.60977782 20.14445877 -28.17578125 14.55859375 C-23.63553893 9.76270162 -17.50239696 7.14052153 -11.50292969 4.60546875 C-9.29006441 3.61000439 -7.34813438 2.45904357 -5.30859375 1.15234375 C-2.17578125 -0.44140625 -2.17578125 -0.44140625 0 0 Z M11.82421875 61.55859375 C11.82421875 62.87859375 11.82421875 64.19859375 11.82421875 65.55859375 C12.81421875 65.55859375 13.80421875 65.55859375 14.82421875 65.55859375 C14.82421875 64.23859375 14.82421875 62.91859375 14.82421875 61.55859375 C13.83421875 61.55859375 12.84421875 61.55859375 11.82421875 61.55859375 Z " fill="#2279A8" transform="translate(48.17578125,4.44140625)"/>
<path d="M0 0 C1.32 0 2.64 0 4 0 C4.28875 0.804375 4.5775 1.60875 4.875 2.4375 C5.73262568 5.1326468 5.73262568 5.1326468 8 6 C8.28875 6.639375 8.5775 7.27875 8.875 7.9375 C9.81030729 10.13715933 9.81030729 10.13715933 11.875 10.875 C14.97661854 12.51703335 16.14887041 15.07402097 18 18 C19.79345894 19.87143541 21.66647307 21.62196534 23.56274414 23.39160156 C27.21331093 27.83311204 26.66250878 32.73028053 26.55859375 38.234375 C26.55509666 39.84593475 26.55509666 39.84593475 26.55152893 41.49005127 C26.54181166 43.75272604 26.52007145 46.01537721 26.48706055 48.27783203 C26.43747158 51.75199112 26.42556785 55.224737 26.41992188 58.69921875 C26.4058427 60.89845266 26.38964075 63.09767423 26.37109375 65.296875 C26.3630497 66.86088043 26.3630497 66.86088043 26.35484314 68.45648193 C26.33885574 69.41798157 26.32286835 70.3794812 26.30639648 71.37011719 C26.29043678 72.64202911 26.29043678 72.64202911 26.27415466 73.93963623 C26 76 26 76 24 78 C21.44008098 78.18784482 18.9893036 78.25189805 16.42919922 78.22705078 C15.64862152 78.22734283 14.86804382 78.22763489 14.06381226 78.22793579 C11.47732522 78.22653968 8.89112436 78.21096542 6.3046875 78.1953125 C4.51392779 78.19158337 2.72316604 78.18873592 0.93240356 78.18673706 C-3.78588472 78.17909275 -8.50405031 78.15943745 -13.22229004 78.1373291 C-18.03489522 78.11688782 -22.84752019 78.10773903 -27.66015625 78.09765625 C-37.10682481 78.07619228 -46.55340221 78.04204675 -56 78 C-56.495 77.01 -56.495 77.01 -57 76 C-57.70266613 78.97574276 -57.70266613 78.97574276 -58 82 C-13.45 82.495 -13.45 82.495 32 83 C32 83.33 32 83.66 32 84 C0.65 84 -30.7 84 -63 84 C-64.12695912 71.60344963 -64.12695912 71.60344963 -64.1328125 66.23046875 C-64.13410156 65.07482422 -64.13539062 63.91917969 -64.13671875 62.72851562 C-64.13285156 61.55998047 -64.12898438 60.39144531 -64.125 59.1875 C-64.13080078 57.40569336 -64.13080078 57.40569336 -64.13671875 55.58789062 C-64.13542969 54.43869141 -64.13414063 53.28949219 -64.1328125 52.10546875 C-64.13168457 51.07574951 -64.13055664 50.04603027 -64.12939453 48.98510742 C-63.99648305 45.91886466 -63.56596695 43.01390044 -63 40 C-63.54269531 40.27714844 -64.08539063 40.55429688 -64.64453125 40.83984375 C-65.71767578 41.38318359 -65.71767578 41.38318359 -66.8125 41.9375 C-67.87404297 42.47697266 -67.87404297 42.47697266 -68.95703125 43.02734375 C-71 44 -71 44 -74 45 C-74 55.23 -74 65.46 -74 76 C-72.02 76 -70.04 76 -68 76 C-67 77 -67 77 -66.9375 80.5625 C-66.958125 81.696875 -66.97875 82.83125 -67 84 C-70 85 -70 85 -83 84 C-83 69.15 -83 54.3 -83 39 C-70.625 32.375 -70.625 32.375 -66.78759766 30.32568359 C-60.8807901 27.15390245 -55.05891228 23.89716178 -49.33203125 20.41113281 C-45.49554028 18.08963807 -41.59756495 15.88209515 -37.6875 13.6875 C-36.91599609 13.24599609 -36.14449219 12.80449219 -35.34960938 12.34960938 C-31.59649661 10.24593329 -28.3569637 8.46091632 -24 8 C-22.02 10.97 -22.02 10.97 -20 14 C-20.5053125 14.32613281 -21.010625 14.65226562 -21.53125 14.98828125 C-22.1809375 15.42527344 -22.830625 15.86226562 -23.5 16.3125 C-24.1496875 16.74175781 -24.799375 17.17101562 -25.46875 17.61328125 C-25.9740625 18.07089844 -26.479375 18.52851562 -27 19 C-27 19.99 -27 20.98 -27 22 C-24.36 22.33 -21.72 22.66 -19 23 C-18.75 25.25 -18.75 25.25 -19 28 C-20.29233607 29.37310707 -21.62437146 30.71034824 -23 32 C-23 32.99 -23 33.98 -23 35 C-22.01 35 -21.02 35 -20 35 C-20 34.01 -20 33.02 -20 32 C-19.34 32 -18.68 32 -18 32 C-17.896875 33.258125 -17.79375 34.51625 -17.6875 35.8125 C-17.38607752 39.08756957 -17.38607752 39.08756957 -15.375 41.5625 C-14.92125 42.036875 -14.4675 42.51125 -14 43 C-14.3125 46.6875 -14.3125 46.6875 -15 50 C-20.625 51.125 -20.625 51.125 -24 50 C-24.22786458 48.01432292 -24.45572917 46.02864583 -24.68359375 44.04296875 C-24.97170735 41.80603607 -24.97170735 41.80603607 -26 39 C-25.72428861 36.99124558 -25.39764263 34.98821313 -25 33 C-25.99 33.33 -26.98 33.66 -28 34 C-28 36.31 -28 38.62 -28 41 C-27.67 41 -27.34 41 -27 41 C-27 43.97 -27 46.94 -27 50 C-29.64 50 -32.28 50 -35 50 C-35 47.36 -35 44.72 -35 42 C-34.01 41.67 -33.02 41.34 -32 41 C-31.67 38.69 -31.34 36.38 -31 34 C-31.99 33.67 -32.98 33.34 -34 33 C-34 32.67 -34 32.34 -34 32 C-31.69 31.67 -29.38 31.34 -27 31 C-27.680625 30.443125 -27.680625 30.443125 -28.375 29.875 C-30.4657578 27.46258716 -31.05813024 25.0221734 -32 22 C-35.31402969 23.8097136 -38.6259602 25.62323481 -41.9375 27.4375 C-43.35579102 28.2119043 -43.35579102 28.2119043 -44.80273438 29.00195312 C-45.70185547 29.49501953 -46.60097656 29.98808594 -47.52734375 30.49609375 C-48.35999756 30.95169678 -49.19265137 31.4072998 -50.05053711 31.87670898 C-51.93906844 32.85251885 -51.93906844 32.85251885 -53 34 C-53.16040156 37.10065186 -53.25970902 40.18205717 -53.31640625 43.28515625 C-53.33505737 44.1097937 -53.3537085 44.93443115 -53.3729248 45.78405762 C-53.44143714 48.87675846 -53.50144851 51.96964288 -53.5625 55.0625 C-53.706875 61.971875 -53.85125 68.88125 -54 76 C-28.26 76 -2.52 76 24 76 C23.87625 68.348125 23.7525 60.69625 23.625 52.8125 C23.59100098 50.40428955 23.55700195 47.9960791 23.52197266 45.51489258 C23.48675724 43.59975811 23.45083494 41.68463645 23.4140625 39.76953125 C23.40270264 38.78029663 23.39134277 37.79106201 23.37963867 36.77185059 C23.35957764 35.81822632 23.3395166 34.86460205 23.31884766 33.88208008 C23.30552399 33.05823318 23.29220032 32.23438629 23.2784729 31.38557434 C22.96064257 28.66283944 22.1135637 26.49382444 21 24 C20.34 24 19.68 24 19 24 C17.3359375 22.1640625 17.3359375 22.1640625 15.375 19.625 C14.67117187 18.72265625 13.96734375 17.8203125 13.2421875 16.890625 C12.50226563 15.93671875 11.76234375 14.9828125 11 14 C9.5030961 12.12252731 8.00325973 10.24738756 6.5 8.375 C5.33333333 6.91666667 4.16666667 5.45833333 3 4 C-0.02266703 4.59651306 -3.01725858 5.22669667 -6 6 C-5.34414811 9.60992379 -5.34414811 9.60992379 -4 13 C-5.65 12.34 -7.3 11.68 -9 11 C-9 9.02 -9 7.04 -9 5 C-8.43410156 4.72285156 -7.86820312 4.44570313 -7.28515625 4.16015625 C-6.18494141 3.61681641 -6.18494141 3.61681641 -5.0625 3.0625 C-3.96615234 2.52302734 -3.96615234 2.52302734 -2.84765625 1.97265625 C-1.03750973 1.13628173 -1.03750973 1.13628173 0 0 Z M-23 37 C-23 38.32 -23 39.64 -23 41 C-22.01 41 -21.02 41 -20 41 C-20 39.68 -20 38.36 -20 37 C-20.99 37 -21.98 37 -23 37 Z " fill="#1A6A97" transform="translate(83,29)"/>
<path d="M0 0 C3.16115776 1.36983503 3.9927092 1.9890638 6 5 C6.86625 5.515625 7.7325 6.03125 8.625 6.5625 C9.800625 7.2740625 9.800625 7.2740625 11 8 C11 8.66 11 9.32 11 10 C11.66 10 12.32 10 13 10 C17 14.47058824 17 14.47058824 17 17 C18.485 17.495 18.485 17.495 20 18 C21.31451862 20.19232008 22.3499901 22.45576815 23.42578125 24.7734375 C25.23894718 27.70966146 25.23894718 27.70966146 31 30 C31 49.47 31 68.94 31 89 C1.3 89 -28.4 89 -59 89 C-60.09658936 85.71023192 -59.79953138 84.28696233 -59 81 C-58.01 81.66 -57.02 82.32 -56 83 C-53.43766448 83.18892727 -50.98520941 83.26274014 -48.42333984 83.24291992 C-47.26929405 83.24576744 -47.26929405 83.24576744 -46.0919342 83.24867249 C-43.54816509 83.25237823 -41.00468124 83.24168063 -38.4609375 83.23046875 C-36.69642165 83.22927692 -34.93190515 83.22882379 -33.16738892 83.2290802 C-29.47027615 83.22751579 -25.77326027 83.21922801 -22.07617188 83.20581055 C-17.32664069 83.1887959 -12.57721579 83.18499693 -7.8276577 83.18575573 C-4.18524147 83.18548445 -0.54284867 83.18001039 3.09955978 83.17275429 C4.85153399 83.16956277 6.60351086 83.16759909 8.35548782 83.16686058 C10.79774804 83.16470352 13.23989321 83.15597389 15.68212891 83.14526367 C16.41252884 83.14571686 17.14292877 83.14617004 17.89546204 83.14663696 C21.23219023 83.41646527 21.23219023 83.41646527 24 82 C24.11915532 80.49789401 24.17007994 78.99029482 24.19287109 77.48364258 C24.21696548 76.04127983 24.21696548 76.04127983 24.24154663 74.56977844 C24.28590804 70.15288874 24.32708727 65.73615229 24.35009766 61.3190918 C24.36663637 58.99021395 24.39389852 56.66138643 24.43212891 54.33276367 C24.48694782 50.97808442 24.50878306 47.62459839 24.5234375 44.26953125 C24.55744156 42.71296562 24.55744156 42.71296562 24.59213257 41.12495422 C24.59815342 34.75796408 24.59815342 34.75796408 21.46728516 29.4206543 C20.65308105 28.62183838 19.83887695 27.82302246 19 27 C19 26.34 19 25.68 19 25 C17.515 24.505 17.515 24.505 16 24 C14.7890625 22.546875 14.7890625 22.546875 13.625 20.75 C11.38592228 17.4520813 8.86110468 14.78581246 6 12 C3 8.37931034 3 8.37931034 3 6 C1.32986582 6.65793165 -0.3357865 7.32723284 -2 8 C-3.2375 8.4125 -4.475 8.825 -5.75 9.25 C-6.8225 9.8275 -7.895 10.405 -9 11 C-10.05749557 14.08369887 -10.05749557 14.08369887 -10 17 C-8.8553125 17.309375 -8.8553125 17.309375 -7.6875 17.625 C-4.08345697 19.46892899 -3.43603216 21.26631638 -2 25 C-1.3125 28.375 -1.3125 28.375 -1 31 C-0.34 30.67 0.32 30.34 1 30 C1.66 30.33 2.32 30.66 3 31 C2.67 32.65 2.34 34.3 2 36 C1.34 36 0.68 36 0 36 C0 35.34 0 34.68 0 34 C-0.61875 33.773125 -1.2375 33.54625 -1.875 33.3125 C-4.61410209 31.62070165 -5.05024472 30.00755839 -6 27 C-6.66 27 -7.32 27 -8 27 C-8 26.34 -8 25.68 -8 25 C-8.99 24.67 -9.98 24.34 -11 24 C-11 23.34 -11 22.68 -11 22 C-11.66 22 -12.32 22 -13 22 C-14.5802044 20.07191478 -16.05112391 18.14787173 -17.5 16.125 C-20.53697765 11.88743771 -20.53697765 11.88743771 -24 8 C-23.67 7.34 -23.34 6.68 -23 6 C-22.34 6 -21.68 6 -21 6 C-20.67 5.34 -20.34 4.68 -20 4 C-17.525 5.98 -17.525 5.98 -15 8 C-13.948125 7.484375 -12.89625 6.96875 -11.8125 6.4375 C-8.51476233 5.00311817 -6.4935632 4.83547893 -3 6 C-2.690625 5.195625 -2.38125 4.39125 -2.0625 3.5625 C-1 1 -1 1 0 0 Z " fill="#1C7DB5" transform="translate(84,23)"/>
<path d="M0 0 C2.12502063 1.96761169 2.82336901 3.82608519 3.6875 6.5625 C2.6975 6.2325 1.7075 5.9025 0.6875 5.5625 C2.32162443 7.27090281 3.55656094 8.49703047 5.6875 9.5625 C5.81125 10.531875 5.935 11.50125 6.0625 12.5 C6.26875 13.510625 6.475 14.52125 6.6875 15.5625 C8.5876177 16.80424796 8.5876177 16.80424796 10.6875 17.5625 C11.3475 18.5525 12.0075 19.5425 12.6875 20.5625 C12.0275 20.5625 11.3675 20.5625 10.6875 20.5625 C10.6875 21.2225 10.6875 21.8825 10.6875 22.5625 C9.6975 22.5625 8.7075 22.5625 7.6875 22.5625 C7.1925 20.5825 7.1925 20.5825 6.6875 18.5625 C6.0275 18.5625 5.3675 18.5625 4.6875 18.5625 C2.5625 16.75 2.5625 16.75 0.6875 14.5625 C0.6875 13.5725 0.6875 12.5825 0.6875 11.5625 C-2.37823645 12.4066883 -5.32792277 13.46844676 -8.3125 14.5625 C-9.23289062 14.80226563 -10.15328125 15.04203125 -11.1015625 15.2890625 C-14.62326416 16.61858099 -16.10075893 17.45721553 -18.3125 20.5625 C-19.17764923 25.45660653 -19.13311161 30.38129977 -18.93945312 35.33496094 C-18.86414463 38.17188722 -18.82555927 40.76544844 -19.3125 43.5625 C-22.44299758 46.56328083 -23.97974398 47.5625 -28.3125 47.5625 C-28.74015766 43.95701693 -29.00423223 40.36372446 -29.17822266 36.73730469 C-29.27256485 35.20930415 -29.40598075 33.6834592 -29.56787109 32.16113281 C-30.16965225 26.22585128 -30.74649657 20.14836502 -28.3125 14.5625 C-23.77005193 9.76427792 -17.63963271 7.1573177 -11.64624023 4.60327148 C-9.43447163 3.61689534 -7.41248146 2.50191425 -5.33984375 1.25390625 C-2.3125 -0.4375 -2.3125 -0.4375 0 0 Z " fill="#246A92" transform="translate(48.3125,4.4375)"/>
<path d="M0 0 C4.9251914 2.082078 7.89043318 4.72210191 11.125 8.875 C11.54136719 9.39191406 11.95773438 9.90882812 12.38671875 10.44140625 C13.60123345 11.95288693 14.80083702 13.47631107 16 15 C17.3327823 16.66710735 18.66591706 18.33393329 20 20 C25.58069764 19.28057305 29.49903775 16.37261904 34.16015625 13.3984375 C37 12 37 12 39.12109375 11.99609375 C41.79469759 13.42460973 43.15090142 15.28857475 45 17.6875 C49.23635371 23.07665113 53.64949126 28.26700587 58.18945312 33.40307617 C62 37.78161256 62 37.78161256 62 40 C62.66 40 63.32 40 64 40 C65.625 42.5 65.625 42.5 67 45 C64.03824877 44.38722388 62.61941217 43.74627478 60 42 C58.7890625 40.01171875 58.7890625 40.01171875 57.625 37.6875 C55.55503375 33.77965463 53.22940689 31.04999539 50 28 C49.505 26.515 49.505 26.515 49 25 C48.34 25 47.68 25 47 25 C46.34 24.01 45.68 23.02 45 22 C44.175 21.505 43.35 21.01 42.5 20.5 C40 19 40 19 38 16 C37.34 16 36.68 16 36 16 C35.608125 16.804375 35.21625 17.60875 34.8125 18.4375 C33 21 33 21 29.625 21.6875 C28.42875 21.790625 27.2325 21.89375 26 22 C23.18137797 22.97549761 23.18137797 22.97549761 21 24 C19.8553125 22.9790625 19.8553125 22.9790625 18.6875 21.9375 C17.800625 21.298125 16.91375 20.65875 16 20 C15.01 20.33 14.02 20.66 13 21 C15.00007797 25.52649224 18.17513471 28.98583771 21.3203125 32.7578125 C23 35 23 35 23 37 C23.66 37 24.32 37 25 37 C26.625 38.375 26.625 38.375 28 40 C28 40.66 28 41.32 28 42 C28.66 42 29.32 42 30 42 C31.35278115 43.98689731 32.68568305 45.98745218 34 48 C34.99 48.495 34.99 48.495 36 49 C37.03013277 50.64821244 38.03114628 52.31503702 39 54 C39.33 54.33 39.66 54.66 40 55 C40.08847743 57.52094076 40.11527301 60.01430893 40.09765625 62.53515625 C40.0962413 63.28840683 40.09482635 64.04165741 40.09336853 64.81773376 C40.08775376 67.2326956 40.07519883 69.64756601 40.0625 72.0625 C40.0574869 73.69596221 40.05292366 75.32942586 40.04882812 76.96289062 C40.03777954 80.97529585 40.02050506 84.98763241 40 89 C39.01 89.495 39.01 89.495 38 90 C38.04713135 89.0527002 38.0942627 88.10540039 38.14282227 87.12939453 C38.30734012 83.57045892 38.40960146 80.01184775 38.49438477 76.45019531 C38.53928735 74.91739163 38.60044029 73.38496553 38.67895508 71.85351562 C39.25163939 62.48043953 39.25163939 62.48043953 36.07958984 53.85424805 C33.83867518 51.378373 31.50256464 49.20544677 29 47 C27.79971571 45.54797976 26.62678318 44.07226978 25.5 42.5625 C20.20398153 35.62752893 14.71569367 28.85963862 8.875 22.375 C5.01626357 18.0900979 1.47769966 13.59708424 -2 9 C-1.01 8.67 -0.02 8.34 1 8 C1.33 8.99 1.66 9.98 2 11 C2.99 11.66 3.98 12.32 5 13 C5 13.66 5 14.32 5 15 C5.66 15 6.32 15 7 15 C7.33 16.32 7.66 17.64 8 19 C8.99 19 9.98 19 11 19 C11 17.68 11 16.36 11 15 C10.38125 14.54625 9.7625 14.0925 9.125 13.625 C6.30761953 11.47053258 5.89563207 9.35862027 5 6 C4.01 6.495 4.01 6.495 3 7 C0 2.25 0 2.25 0 0 Z " fill="#286E99" transform="translate(48,8)"/>
<path d="M0 0 C2.09635892 3.14453838 2.2421955 3.77059702 2.16699219 7.33203125 C2.15327576 8.20303467 2.13955933 9.07403809 2.12542725 9.97143555 C2.099505 10.90898682 2.07358276 11.84653809 2.046875 12.8125 C2.01645111 14.26039917 2.01645111 14.26039917 1.9854126 15.73754883 C1.93983495 17.77860237 1.88906101 19.81954549 1.83349609 21.86035156 C1.75033289 24.98748245 1.68846665 28.11452806 1.62890625 31.2421875 C1.58200847 33.22398902 1.53387297 35.20576172 1.484375 37.1875 C1.45763702 38.5938269 1.45763702 38.5938269 1.43035889 40.02856445 C1.39087128 41.33506958 1.39087128 41.33506958 1.35058594 42.66796875 C1.33122986 43.43391357 1.31187378 44.1998584 1.29193115 44.98901367 C1 47 1 47 -1 50 C-2.91091919 50.36076355 -2.91091919 50.36076355 -5.26611328 50.34057617 C-6.14687531 50.34034958 -7.02763733 50.34012299 -7.93508911 50.33988953 C-8.88721283 50.32440567 -9.83933655 50.30892181 -10.8203125 50.29296875 C-11.79410858 50.28872391 -12.76790466 50.28447906 -13.77120972 50.28010559 C-16.88941805 50.26327786 -20.00698617 50.22561811 -23.125 50.1875 C-25.23566777 50.17245846 -27.34634564 50.15876914 -29.45703125 50.14648438 C-34.63824023 50.11336109 -39.81907439 50.06312151 -45 50 C-44.43481155 50.01030746 -43.86962311 50.02061493 -43.28730774 50.03123474 C-37.39853855 50.13951448 -31.50991574 50.25409463 -25.62133789 50.37231445 C-23.42442898 50.41559452 -21.22748793 50.45727445 -19.03051758 50.49731445 C-15.87050701 50.55518487 -12.71065716 50.61883107 -9.55078125 50.68359375 C-8.57039383 50.70030624 -7.59000641 50.71701874 -6.57991028 50.73423767 C-5.19904488 50.7641555 -5.19904488 50.7641555 -3.7902832 50.79467773 C-2.9842012 50.81022202 -2.1781192 50.8257663 -1.34761047 50.84178162 C1.16948533 51.01142255 3.53907787 51.45520451 6 52 C6 52.33 6 52.66 6 53 C-23.7 53 -53.4 53 -84 53 C-85.09658936 49.71023192 -84.79953138 48.28696233 -84 45 C-83.01 45.66 -82.02 46.32 -81 47 C-78.43766448 47.18892727 -75.98520941 47.26274014 -73.42333984 47.24291992 C-72.65397598 47.24481827 -71.88461212 47.24671661 -71.0919342 47.24867249 C-68.54816509 47.25237823 -66.00468124 47.24168063 -63.4609375 47.23046875 C-61.69642165 47.22927692 -59.93190515 47.22882379 -58.16738892 47.2290802 C-54.47027615 47.22751579 -50.77326027 47.21922801 -47.07617188 47.20581055 C-42.32664069 47.1887959 -37.57721579 47.18499693 -32.8276577 47.18575573 C-29.18524147 47.18548445 -25.54284867 47.18001039 -21.90044022 47.17275429 C-20.14846601 47.16956277 -18.39648914 47.16759909 -16.64451218 47.16686058 C-14.20225196 47.16470352 -11.76010679 47.15597389 -9.31787109 47.14526367 C-8.58747116 47.14571686 -7.85707123 47.14617004 -7.10453796 47.14663696 C-3.76780977 47.41646527 -3.76780977 47.41646527 -1 46 C-0.87778475 44.55815707 -0.82227242 43.11056856 -0.79467773 41.66381836 C-0.77473251 40.7429393 -0.75478729 39.82206024 -0.73423767 38.87327576 C-0.71752518 37.87224319 -0.70081268 36.87121063 -0.68359375 35.83984375 C-0.6524221 34.31043907 -0.6524221 34.31043907 -0.62062073 32.75013733 C-0.55501148 29.47932952 -0.49618766 26.20843863 -0.4375 22.9375 C-0.39432558 20.72590272 -0.35071166 18.51431397 -0.30664062 16.30273438 C-0.1993186 10.86857849 -0.09757377 5.43433918 0 0 Z " fill="#217BAD" transform="translate(109,59)"/>
<path d="M0 0 C0 2.6875 0 2.6875 -1 6 C-5.07110859 9.49784986 -10.2134624 11.65557342 -15 14 C-16.5238844 14.84871142 -18.04450262 15.70330346 -19.5625 16.5625 C-22.04933561 17.96737341 -24.31659992 19.11872497 -27 20.125 C-27.66 20.41375 -28.32 20.7025 -29 21 C-30.15839043 24.47517129 -30.22801218 27.6727002 -30.31640625 31.29296875 C-30.33718735 31.99899734 -30.35796844 32.70502594 -30.37937927 33.43244934 C-30.44467491 35.68403551 -30.50366647 37.93573662 -30.5625 40.1875 C-30.60570425 41.7155066 -30.64931916 43.24350164 -30.69335938 44.77148438 C-30.80033574 48.51420562 -30.90165922 52.2570423 -31 56 C-31.99 56.495 -31.99 56.495 -33 57 C-33 49.74 -33 42.48 -33 35 C-33.66 35 -34.32 35 -35 35 C-36.07610988 31.77167035 -35.93935312 31.0998653 -35 28 C-34.814375 27.2575 -34.62875 26.515 -34.4375 25.75 C-34.293125 25.1725 -34.14875 24.595 -34 24 C-34.66 24 -35.32 24 -36 24 C-36 25.65 -36 27.3 -36 29 C-37.7074998 27.71937515 -39.37373596 26.38232443 -41 25 C-41 24.34 -41 23.68 -41 23 C-40.34 23 -39.68 23 -39 23 C-39 22.34 -39 21.68 -39 21 C-36.953125 19.59765625 -36.953125 19.59765625 -34.25 18.0625 C-31.71437981 16.6130446 -29.29162196 15.22662869 -26.984375 13.43359375 C-25 12 -25 12 -22.82421875 11.1328125 C-17.73969423 9.09337666 -13.08045033 6.17046179 -8.33007812 3.45703125 C-7.15541992 2.79380859 -7.15541992 2.79380859 -5.95703125 2.1171875 C-5.24522705 1.71097168 -4.53342285 1.30475586 -3.80004883 0.88623047 C-2 0 -2 0 0 0 Z " fill="#1F7DB4" transform="translate(58,39)"/>
<path d="M0 0 C1.32 0 2.64 0 4 0 C4.28875 0.804375 4.5775 1.60875 4.875 2.4375 C5.73262568 5.1326468 5.73262568 5.1326468 8 6 C8.28875 6.639375 8.5775 7.27875 8.875 7.9375 C9.81030729 10.13715933 9.81030729 10.13715933 11.875 10.875 C14.97661854 12.51703335 16.14887041 15.07402097 18 18 C19.79345894 19.87143541 21.66647307 21.62196534 23.56274414 23.39160156 C27.21331093 27.83311204 26.66250878 32.73028053 26.55859375 38.234375 C26.55509666 39.84593475 26.55509666 39.84593475 26.55152893 41.49005127 C26.54181166 43.75272604 26.52007145 46.01537721 26.48706055 48.27783203 C26.43747158 51.75199112 26.42556785 55.224737 26.41992188 58.69921875 C26.4058427 60.89845266 26.38964075 63.09767423 26.37109375 65.296875 C26.3630497 66.86088043 26.3630497 66.86088043 26.35484314 68.45648193 C26.33885574 69.41798157 26.32286835 70.3794812 26.30639648 71.37011719 C26.29043678 72.64202911 26.29043678 72.64202911 26.27415466 73.93963623 C26 76 26 76 24 78 C22.20370483 78.23498535 22.20370483 78.23498535 19.98974609 78.21289062 C19.15021393 78.20906372 18.31068176 78.20523682 17.44570923 78.20129395 C16.06105972 78.17899719 16.06105972 78.17899719 14.6484375 78.15625 C13.67868988 78.14815308 12.70894226 78.14005615 11.70980835 78.13171387 C8.47292588 78.10020577 5.23661912 78.0517652 2 78 C0.87630005 77.98356445 -0.2473999 77.96712891 -1.40515137 77.95019531 C-9.7289733 77.8258585 -18.05192497 77.66617154 -26.375 77.5 C-28.87629835 77.45162966 -31.37760043 77.40345152 -33.87890625 77.35546875 C-39.9193154 77.23918619 -45.95967487 77.12056421 -52 77 C-52 76.67 -52 76.34 -52 76 C-26.92 76 -1.84 76 24 76 C23.87625 68.348125 23.7525 60.69625 23.625 52.8125 C23.59100098 50.40428955 23.55700195 47.9960791 23.52197266 45.51489258 C23.48675724 43.59975811 23.45083494 41.68463645 23.4140625 39.76953125 C23.40270264 38.78029663 23.39134277 37.79106201 23.37963867 36.77185059 C23.35957764 35.81822632 23.3395166 34.86460205 23.31884766 33.88208008 C23.30552399 33.05823318 23.29220032 32.23438629 23.2784729 31.38557434 C22.96064257 28.66283944 22.1135637 26.49382444 21 24 C20.34 24 19.68 24 19 24 C17.3359375 22.1640625 17.3359375 22.1640625 15.375 19.625 C14.67117187 18.72265625 13.96734375 17.8203125 13.2421875 16.890625 C12.50226563 15.93671875 11.76234375 14.9828125 11 14 C9.5030961 12.12252731 8.00325973 10.24738756 6.5 8.375 C5.33333333 6.91666667 4.16666667 5.45833333 3 4 C-0.02266703 4.59651306 -3.01725858 5.22669667 -6 6 C-5.34414811 9.60992379 -5.34414811 9.60992379 -4 13 C-6.475 12.01 -6.475 12.01 -9 11 C-9 9.02 -9 7.04 -9 5 C-8.43410156 4.72285156 -7.86820313 4.44570313 -7.28515625 4.16015625 C-6.18494141 3.61681641 -6.18494141 3.61681641 -5.0625 3.0625 C-4.33160156 2.70285156 -3.60070312 2.34320312 -2.84765625 1.97265625 C-1.03750973 1.13628173 -1.03750973 1.13628173 0 0 Z " fill="#225D7C" transform="translate(83,29)"/>
<path d="M0 0 C0 0.66 0 1.32 0 2 C2.64 2.33 5.28 2.66 8 3 C8.25 5.25 8.25 5.25 8 8 C6.70766393 9.37310707 5.37562854 10.71034824 4 12 C4 12.99 4 13.98 4 15 C4.99 15 5.98 15 7 15 C7 14.01 7 13.02 7 12 C7.66 12 8.32 12 9 12 C9.103125 13.258125 9.20625 14.51625 9.3125 15.8125 C9.61392248 19.08756957 9.61392248 19.08756957 11.625 21.5625 C12.07875 22.036875 12.5325 22.51125 13 23 C12.6875 26.6875 12.6875 26.6875 12 30 C6.375 31.125 6.375 31.125 3 30 C2.77213542 28.01432292 2.54427083 26.02864583 2.31640625 24.04296875 C2.02829265 21.80603607 2.02829265 21.80603607 1 19 C1.27571139 16.99124558 1.60235737 14.98821313 2 13 C1.01 13.33 0.02 13.66 -1 14 C-1 16.31 -1 18.62 -1 21 C-0.67 21 -0.34 21 0 21 C0 23.97 0 26.94 0 30 C-2.64 30 -5.28 30 -8 30 C-8 27.36 -8 24.72 -8 22 C-7.01 21.67 -6.02 21.34 -5 21 C-4.67 18.69 -4.34 16.38 -4 14 C-4.99 13.67 -5.98 13.34 -7 13 C-7 12.67 -7 12.34 -7 12 C-3.535 11.505 -3.535 11.505 0 11 C-0.45375 10.62875 -0.9075 10.2575 -1.375 9.875 C-3.47029394 7.45735315 -4.12013285 5.04569398 -5 2 C-2 0 -2 0 0 0 Z M4 17 C4 18.32 4 19.64 4 21 C4.99 21 5.98 21 7 21 C7 19.68 7 18.36 7 17 C6.01 17 5.02 17 4 17 Z " fill="#3A5764" transform="translate(56,49)"/>
<path d="M0 0 C-1.875 4.875 -1.875 4.875 -3 6 C-3.37926284 10.25206355 -3.51191288 14.51756979 -3.66748047 18.78295898 C-3.74955392 20.92585296 -3.85305179 23.06705682 -3.95703125 25.20898438 C-4.00914424 26.56505364 -4.05996837 27.92117318 -4.109375 29.27734375 C-4.16061523 30.51734131 -4.21185547 31.75733887 -4.26464844 33.03491211 C-4.17731445 34.01339111 -4.08998047 34.99187012 -4 36 C-0.77208445 38.1519437 0.28400809 38.20086443 4 38 C4.33 39.65 4.66 41.3 5 43 C0.05 43 -4.9 43 -10 43 C-10.07401964 37.19761976 -10.12853989 31.39551278 -10.16479492 25.59277344 C-10.17990462 23.61778987 -10.20039328 21.64283996 -10.22631836 19.66796875 C-10.26260619 16.83324894 -10.27970416 13.99897174 -10.29296875 11.1640625 C-10.30845261 10.27756012 -10.32393646 9.39105774 -10.33988953 8.47769165 C-10.34011612 7.65699188 -10.34034271 6.83629211 -10.34057617 5.99072266 C-10.34723801 5.26680328 -10.35389984 4.54288391 -10.36076355 3.79702759 C-9.34953502 -1.24008208 -3.947167 -0.1489497 0 0 Z " fill="#1A7CB5" transform="translate(10,69)"/>
<path d="M0 0 C2.90703436 1.2332873 3.65606908 3.13245971 5.0625 5.875 C3.94176138 6.71405565 2.81575453 7.54607831 1.6875 8.375 C1.06101563 8.8390625 0.43453125 9.303125 -0.2109375 9.78125 C-1.9375 10.875 -1.9375 10.875 -3.9375 10.875 C-4.2675 11.865 -4.5975 12.855 -4.9375 13.875 C-7.5852538 14.92092452 -10.26557539 15.68818688 -13.00634766 16.45019531 C-18.94593537 18.29256133 -24.42589912 20.52923365 -27.9375 25.875 C-30.45570692 36.22825159 -29.61320259 47.32514152 -28.9375 57.875 C-29.2675 57.875 -29.5975 57.875 -29.9375 57.875 C-30.20483412 53.41040579 -30.43773862 48.94571273 -30.6394043 44.4777832 C-30.71272572 42.9593986 -30.79530654 41.44143089 -30.88745117 39.92407227 C-31.01859705 37.73759097 -31.11593569 35.55175289 -31.20703125 33.36328125 C-31.27510986 32.04884033 -31.34318848 30.73439941 -31.41333008 29.38012695 C-30.81271273 24.95577432 -29.36103146 23.62806351 -25.9375 20.875 C-23.40234375 19.3984375 -23.40234375 19.3984375 -20.875 18.25 C-18.36444283 17.09723261 -16.15492681 16.03945839 -13.94921875 14.37109375 C-10.96218354 12.14966757 -7.59547881 10.89358154 -4.1796875 9.44921875 C-1.1955484 7.35408276 -0.78848323 5.34108336 0.0625 1.875 C-2.31465196 3.12103894 -4.68919058 4.3716793 -7.0625 5.625 C-7.72765625 5.97304688 -8.3928125 6.32109375 -9.078125 6.6796875 C-12.21203577 8.33881673 -15.16974163 10.0313494 -18.1171875 12.015625 C-20.71027932 13.725198 -23.05344873 14.77542633 -25.9375 15.875 C-27.51943946 16.75769563 -29.08183508 17.67614487 -30.625 18.625 C-31.49769531 19.15609375 -32.37039062 19.6871875 -33.26953125 20.234375 C-34.97667745 21.28415744 -36.68253402 22.33604179 -38.38671875 23.390625 C-44.72581717 27.26962242 -51.2508059 30.63505544 -57.9375 33.875 C-57.9375 32.885 -57.9375 31.895 -57.9375 30.875 C-56.83462646 30.285979 -56.83462646 30.285979 -55.70947266 29.68505859 C-52.9313712 28.19976727 -50.15451025 26.71218727 -47.37841797 25.22314453 C-45.60606363 24.27334561 -43.83234521 23.32609348 -42.05859375 22.37890625 C-36.04259421 19.14997994 -30.11383419 15.8377822 -24.28271484 12.28613281 C-20.39049538 9.94415608 -16.41497811 7.75546984 -12.4375 5.5625 C-11.64085937 5.12099609 -10.84421875 4.67949219 -10.0234375 4.22460938 C-2.1399033 -0.13805828 -2.1399033 -0.13805828 0 0 Z " fill="#1B597B" transform="translate(57.9375,37.125)"/>
<path d="M0 0 C0.433125 0.969375 0.86625 1.93875 1.3125 2.9375 C2.7014861 6.27731765 2.7014861 6.27731765 6 7 C6.12375 8.423125 6.12375 8.423125 6.25 9.875 C6.63171522 13.08838835 6.63171522 13.08838835 8.9375 14.1875 C9.618125 14.455625 10.29875 14.72375 11 15 C11.99 16.485 11.99 16.485 13 18 C12.34 18 11.68 18 11 18 C11 18.66 11 19.32 11 20 C10.01 20 9.02 20 8 20 C7.67 18.68 7.34 17.36 7 16 C6.34 16 5.68 16 5 16 C2.875 14.1875 2.875 14.1875 1 12 C1 11.01 1 10.02 1 9 C-0.98 9.33 -2.96 9.66 -5 10 C-5 9.34 -5 8.68 -5 8 C-5.51949219 8.28875 -6.03898437 8.5775 -6.57421875 8.875 C-13.50087873 12.56239016 -13.50087873 12.56239016 -18 12 C-18 12.66 -18 13.32 -18 14 C-18.66 13.67 -19.32 13.34 -20 13 C-19.62118922 10.25362183 -19.22167713 9.19950942 -17.125 7.3125 C-15 6 -15 6 -12 5 C-9.97732269 3.73323084 -8.00847291 2.40075325 -6.03515625 1.05859375 C-4 0 -4 0 0 0 Z " fill="#207BAE" transform="translate(48,7)"/>
<path d="M0 0 C0.66 0.66 1.32 1.32 2 2 C-1.75 5 -1.75 5 -4 5 C-4 15.23 -4 25.46 -4 36 C-2.02 36 -0.04 36 2 36 C3 37 3 37 3.0625 40.5625 C3.041875 41.696875 3.02125 42.83125 3 44 C-0.54674003 45.18224668 -2.97522995 44.89329634 -6.6875 44.5625 C-7.86699219 44.46066406 -9.04648438 44.35882813 -10.26171875 44.25390625 C-11.16535156 44.17011719 -12.06898437 44.08632812 -13 44 C-13 43.67 -13 43.34 -13 43 C-8.05 43 -3.1 43 2 43 C1.67 41.68 1.34 40.36 1 39 C-0.98 39 -2.96 39 -5 39 C-5 38.34 -5 37.68 -5 37 C-5.99 36.67 -6.98 36.34 -8 36 C-7.93101959 31.8001981 -7.84300555 27.6013512 -7.73754883 23.40234375 C-7.70435206 21.97472086 -7.67630369 20.54696837 -7.65356445 19.11914062 C-7.61991987 17.06324185 -7.56760438 15.00852488 -7.51171875 12.953125 C-7.48553467 11.71723633 -7.45935059 10.48134766 -7.43237305 9.20800781 C-6.97433889 5.80960641 -6.52672109 4.30230718 -4 2 C-2.68 2 -1.36 2 0 2 C0 1.34 0 0.68 0 0 Z " fill="#227CA9" transform="translate(13,69)"/>
<path d="M0 0 C0 9.57 0 19.14 0 29 C-6 31 -6 31 -7 31 C-7.33 27.37 -7.66 23.74 -8 20 C-7.34 19.67 -6.68 19.34 -6 19 C-5.70162597 15.62346356 -5.58398386 12.28922047 -5.52148438 8.90234375 C-5.3179938 3.45276679 -5.3179938 3.45276679 -3.58984375 0.9921875 C-2 0 -2 0 0 0 Z " fill="#1D7DB6" transform="translate(27,19)"/>
<path d="M0 0 C1.32 0.33 2.64 0.66 4 1 C4 1.99 4 2.98 4 4 C-1.25714286 8 -1.25714286 8 -4 8 C-4.33 8.99 -4.66 9.98 -5 11 C-7.6477538 12.04592452 -10.32807539 12.81318688 -13.06884766 13.57519531 C-19.00843537 15.41756133 -24.48839912 17.65423365 -28 23 C-30.51820692 33.35325159 -29.67570259 44.45014152 -29 55 C-29.33 55 -29.66 55 -30 55 C-30.26733412 50.53540579 -30.50023862 46.07071273 -30.7019043 41.6027832 C-30.77522572 40.0843986 -30.85780654 38.56643089 -30.94995117 37.04907227 C-31.08109705 34.86259097 -31.17843569 32.67675289 -31.26953125 30.48828125 C-31.33760986 29.17384033 -31.40568848 27.85939941 -31.47583008 26.50512695 C-30.87521273 22.08077432 -29.42353146 20.75306351 -26 18 C-23.46484375 16.5234375 -23.46484375 16.5234375 -20.9375 15.375 C-18.42883556 14.22310169 -16.21780063 13.16431325 -14.01171875 11.5 C-11.01766004 9.2675368 -7.65309778 7.96440764 -4.2421875 6.4765625 C-1.47993954 4.65752116 -0.92781633 3.11704586 0 0 Z " fill="#255978" transform="translate(58,40)"/>
<path d="M0 0 C3.59476701 3.49205938 6.92026191 7.04033675 10 11 C10 11.66 10 12.32 10 13 C10.66 13 11.32 13 12 13 C13.625 14.375 13.625 14.375 15 16 C15 16.66 15 17.32 15 18 C15.66 18 16.32 18 17 18 C18.35278115 19.98689731 19.68568305 21.98745218 21 24 C21.66 24.33 22.32 24.66 23 25 C24.03013277 26.64821244 25.03114628 28.31503702 26 30 C26.33 30.33 26.66 30.66 27 31 C27.08847743 33.52094076 27.11527301 36.01430893 27.09765625 38.53515625 C27.0962413 39.28840683 27.09482635 40.04165741 27.09336853 40.81773376 C27.08775376 43.2326956 27.07519883 45.64756601 27.0625 48.0625 C27.0574869 49.69596221 27.05292366 51.32942586 27.04882812 52.96289062 C27.03777954 56.97529585 27.02050506 60.98763241 27 65 C26.01 65.495 26.01 65.495 25 66 C25.04713135 65.0527002 25.0942627 64.10540039 25.14282227 63.12939453 C25.30734012 59.57045892 25.40960146 56.01184775 25.49438477 52.45019531 C25.53928735 50.91739163 25.60044029 49.38496553 25.67895508 47.85351562 C26.25163939 38.48043953 26.25163939 38.48043953 23.07958984 29.85424805 C20.83867518 27.378373 18.50256464 25.20544677 16 23 C14.79944272 21.54820547 13.62638465 20.07256713 12.5 18.5625 C9.06727021 14.03129667 5.41207785 9.70664216 1.72265625 5.3828125 C0 3 0 3 0 0 Z " fill="#215B7E" transform="translate(61,32)"/>
<path d="M0 0 C1.32 0 2.64 0 4 0 C4.28875 0.804375 4.5775 1.60875 4.875 2.4375 C5.73262568 5.1326468 5.73262568 5.1326468 8 6 C8.28875 6.639375 8.5775 7.27875 8.875 7.9375 C9.81030729 10.13715933 9.81030729 10.13715933 11.875 10.875 C14.97661854 12.51703335 16.14887041 15.07402097 18 18 C18.515625 18.515625 19.03125 19.03125 19.5625 19.5625 C21.51859244 21.51859244 22.76544112 23.53088224 24 26 C23.505 27.485 23.505 27.485 23 29 C22.34 27.35 21.68 25.7 21 24 C20.34 24 19.68 24 19 24 C17.3359375 22.1640625 17.3359375 22.1640625 15.375 19.625 C14.67117187 18.72265625 13.96734375 17.8203125 13.2421875 16.890625 C12.50226563 15.93671875 11.76234375 14.9828125 11 14 C9.5030961 12.12252731 8.00325973 10.24738756 6.5 8.375 C4.75 6.1875 4.75 6.1875 3 4 C-0.02266703 4.59651306 -3.01725858 5.22669667 -6 6 C-5.34414811 9.60992379 -5.34414811 9.60992379 -4 13 C-6.475 12.01 -6.475 12.01 -9 11 C-9 9.02 -9 7.04 -9 5 C-8.43410156 4.72285156 -7.86820312 4.44570313 -7.28515625 4.16015625 C-6.55167969 3.79792969 -5.81820312 3.43570313 -5.0625 3.0625 C-3.96615234 2.52302734 -3.96615234 2.52302734 -2.84765625 1.97265625 C-1.03750973 1.13628173 -1.03750973 1.13628173 0 0 Z " fill="#265F7E" transform="translate(83,29)"/>
<path d="M0 0 C1.37562854 1.28965176 2.70766393 2.62689293 4 4 C4 4.66 4 5.32 4 6 C4.66 6 5.32 6 6 6 C8.53904895 9.80857343 8.2708636 12.87138957 8.23046875 17.28125 C8.22978142 18.4960907 8.22978142 18.4960907 8.2290802 19.73547363 C8.22606079 21.44687364 8.21818375 23.15827097 8.20581055 24.86962891 C8.18756956 27.49000785 8.18530082 30.11003297 8.18554688 32.73046875 C8.18063083 34.39323222 8.17480214 36.0559933 8.16796875 37.71875 C8.16685593 38.50318481 8.1657431 39.28761963 8.16459656 40.0958252 C8.13645054 43.32015517 8.02679723 45.9196083 7 49 C4.36 49 1.72 49 -1 49 C-1.33 48.34 -1.66 47.68 -2 47 C-0.02 47 1.96 47 4 47 C6.33032007 42.33935986 5.31192492 35.40317736 5.35009766 30.22509766 C5.36662862 28.58204964 5.39388129 26.93907269 5.43212891 25.29638672 C5.4871218 22.92117204 5.50880554 20.54764204 5.5234375 18.171875 C5.54610687 17.44353455 5.56877625 16.71519409 5.59213257 15.96478271 C5.56808834 10.11141406 3.72070555 8.13084468 0 4 C0 2.68 0 1.36 0 0 Z " fill="#225F84" transform="translate(88,52)"/>
<path d="M0 0 C2.19052492 3.53891592 2.24509905 6.40802023 2.23046875 10.5234375 C2.22853516 11.791875 2.22660156 13.0603125 2.22460938 14.3671875 C2.21840576 15.02557617 2.21220215 15.68396484 2.20581055 16.36230469 C2.18762503 18.36125682 2.18652679 20.36034039 2.18554688 22.359375 C2.15964402 28.03497809 2.06228915 33.41039876 1 39 C0.67 39 0.34 39 0 39 C-1.01276787 30.99013655 -1.15110504 23.06645616 -1.125 15 C-1.12886719 13.77410156 -1.13273437 12.54820313 -1.13671875 11.28515625 C-1.13542969 10.11855469 -1.13414063 8.95195313 -1.1328125 7.75 C-1.13168457 6.69296875 -1.13055664 5.6359375 -1.12939453 4.546875 C-1 2 -1 2 0 0 Z " fill="#1C6198" transform="translate(20,73)"/>
<path d="M0 0 C0 0.66 0 1.32 0 2 C2.64 2.33 5.28 2.66 8 3 C8.375 5.25 8.375 5.25 8 8 C5 10.3125 5 10.3125 2 12 C-1.21365891 10.89184175 -1.9914224 10.01470446 -3.75 7 C-5 4 -5 4 -5 2 C-2 0 -2 0 0 0 Z " fill="#8F9D64" transform="translate(56,49)"/>
<path d="M0 0 C1.97558594 1.51074219 1.97558594 1.51074219 4 4 C4.34939929 6.75086191 4.46885179 9.0883556 4.390625 11.828125 C4.38496521 12.57713074 4.37930542 13.32613647 4.37347412 14.09783936 C4.35114057 16.482552 4.30095386 18.86574408 4.25 21.25 C4.22993091 22.86976991 4.21168085 24.48956346 4.1953125 26.109375 C4.15128624 30.07349966 4.08228298 34.03649232 4 38 C3.34 38 2.68 38 2 38 C1.98018066 37.01080566 1.96036133 36.02161133 1.93994141 35.00244141 C1.86396544 31.33827923 1.77523648 27.67451836 1.68261719 24.01074219 C1.64429415 22.42390862 1.60944712 20.83698719 1.578125 19.25 C1.53254569 16.97103434 1.47454162 14.69267532 1.4140625 12.4140625 C1.40251129 11.70255035 1.39096008 10.99103821 1.37905884 10.25796509 C1.36591761 6.17896343 1.36591761 6.17896343 -1 3 C-0.67 2.01 -0.34 1.02 0 0 Z " fill="#1C7EB8" transform="translate(88,59)"/>
<path d="M0 0 C3.5 0.125 3.5 0.125 4.5 1.125 C4.64115161 3.79558851 4.54247107 6.44932238 4.5 9.125 C1.86 9.125 -0.78 9.125 -3.5 9.125 C-4.48150241 6.18049278 -4.6613058 4.18981021 -4.5 1.125 C-3.5 0.125 -3.5 0.125 0 0 Z " fill="#2D677E" transform="translate(63.5,81.875)"/>
<path d="M0 0 C0.66 0.66 1.32 1.32 2 2 C-1.75 5 -1.75 5 -4 5 C-4 14.9 -4 24.8 -4 35 C-4.66 35 -5.32 35 -6 35 C-6.04946113 30.78248718 -6.08574827 26.56512832 -6.10986328 22.34741211 C-6.119917 20.91281188 -6.13356194 19.47823211 -6.15087891 18.04370117 C-6.17515549 15.98090562 -6.18648919 13.91838115 -6.1953125 11.85546875 C-6.20578613 10.61434326 -6.21625977 9.37321777 -6.22705078 8.09448242 C-6 5 -6 5 -4 2 C-2.68 2 -1.36 2 0 2 C0 1.34 0 0.68 0 0 Z " fill="#1C607B" transform="translate(13,69)"/>
<path d="M0 0 C1.66666667 1.66666667 3.33333333 3.33333333 5 5 C6.0828125 5.9590625 6.0828125 5.9590625 7.1875 6.9375 C9.40770986 9.46394571 10.04702971 11.80074259 11 15 C11.99 16.485 11.99 16.485 13 18 C12.67 18.99 12.34 19.98 12 21 C11.34 20.34 10.68 19.68 10 19 C8.68 19 7.36 19 6 19 C5.67 18.34 5.34 17.68 5 17 C5.66 17 6.32 17 7 17 C7.33 15.35 7.66 13.7 8 12 C6.68 12.33 5.36 12.66 4 13 C0.71428571 4.57142857 0.71428571 4.57142857 0 0 Z " fill="#1A79AC" transform="translate(79,42)"/>
<path d="M0 0 C3 0.125 3 0.125 4 1.125 C4.14115161 3.79558851 4.04247107 6.44932238 4 9.125 C1.36 9.125 -1.28 9.125 -4 9.125 C-4.09765625 2.97265625 -4.09765625 2.97265625 -4 1.125 C-3 0.125 -3 0.125 0 0 Z " fill="#205877" transform="translate(52,81.875)"/>
<path d="M0 0 C1.134375 0.020625 2.26875 0.04125 3.4375 0.0625 C3.4375 3.0325 3.4375 6.0025 3.4375 9.0625 C0.7975 9.0625 -1.8425 9.0625 -4.5625 9.0625 C-4.66015625 2.91015625 -4.66015625 2.91015625 -4.5625 1.0625 C-3.5625 0.0625 -3.5625 0.0625 0 0 Z " fill="#2B6B8D" transform="translate(52.5625,69.9375)"/>
<path d="M0 0 C3.59476701 3.49205938 6.92026191 7.04033675 10 11 C10 11.66 10 12.32 10 13 C10.66 13 11.32 13 12 13 C13.625 14.375 13.625 14.375 15 16 C15 16.66 15 17.32 15 18 C15.66 18 16.32 18 17 18 C19 21 19 21 18.625 23.1875 C18.315625 24.0846875 18.315625 24.0846875 18 25 C15.86526215 22.39087596 13.73132748 19.78115658 11.6015625 17.16796875 C9.88669473 15.07007496 8.15196698 12.99144693 6.3984375 10.92578125 C5.58632812 9.96027344 4.77421875 8.99476562 3.9375 8 C3.18339844 7.113125 2.42929687 6.22625 1.65234375 5.3125 C0 3 0 3 0 0 Z " fill="#205572" transform="translate(61,32)"/>
<path d="M0 0 C2.44989101 3.74235319 2.23086143 7.44225419 2.125 11.75 C2.11597656 12.44738281 2.10695313 13.14476562 2.09765625 13.86328125 C2.07419888 15.57566958 2.03833104 17.28788004 2 19 C0.68 19.33 -0.64 19.66 -2 20 C-2.33 16.37 -2.66 12.74 -3 9 C-2.34 8.67 -1.68 8.34 -1 8 C-0.53476937 6.10466658 -0.53476937 6.10466658 -0.375 3.9375 C-0.25125 2.638125 -0.1275 1.33875 0 0 Z " fill="#237BAF" transform="translate(22,30)"/>
<path d="M0 0 C3.63 0 7.26 0 11 0 C11 0.99 11 1.98 11 3 C12.32 3.33 13.64 3.66 15 4 C13.68 4.33 12.36 4.66 11 5 C10.67 6.65 10.34 8.3 10 10 C9.34 9.67 8.68 9.34 8 9 C7.875 3.25 7.875 3.25 9 1 C8.01 1.33 7.02 1.66 6 2 C5.67 4.31 5.34 6.62 5 9 C4.34 9 3.68 9 3 9 C3 6.69 3 4.38 3 2 C2.01 1.67 1.02 1.34 0 1 C0 0.67 0 0.34 0 0 Z " fill="#2A2824" transform="translate(49,61)"/>
<path d="M0 0 C2.46430192 1.69720913 2.95739176 3.46846745 3.84155273 6.26831055 C3.28467773 5.75268555 2.72780273 5.23706055 2.15405273 4.70581055 C-0.05070543 3.03031356 -0.05070543 3.03031356 -2.59594727 3.39331055 C-6.14978105 4.60681477 -9.42374178 5.79889957 -11.15844727 9.26831055 C-13.40844727 9.83081055 -13.40844727 9.83081055 -16.15844727 10.26831055 C-17.08657227 10.45393555 -18.01469727 10.63956055 -18.97094727 10.83081055 C-19.69282227 10.97518555 -20.41469727 11.11956055 -21.15844727 11.26831055 C-17.94757044 7.84908733 -14.26030252 5.77382909 -10.22094727 3.45581055 C-9.50487305 3.02333008 -8.78879883 2.59084961 -8.05102539 2.14526367 C-7.35557617 1.74629883 -6.66012695 1.34733398 -5.94360352 0.9362793 C-5.31333252 0.56784912 -4.68306152 0.19941895 -4.03369141 -0.18017578 C-2.15844727 -0.73168945 -2.15844727 -0.73168945 0 0 Z " fill="#23516C" transform="translate(48.158447265625,4.731689453125)"/>
<path d="M0 0 C1.98 0.66 3.96 1.32 6 2 C5.67 3.98 5.34 5.96 5 8 C3.02 8.33 1.04 8.66 -1 9 C-1.625 5.625 -1.625 5.625 -2 2 C-1.34 1.34 -0.68 0.68 0 0 Z " fill="#267CA7" transform="translate(63,71)"/>
<path d="M0 0 C2.52588702 2.36292656 3.88820837 3.66462511 5 7 C8.00007271 8.70855022 8.00007271 8.70855022 11 10 C11 10.66 11 11.32 11 12 C9.68 11.67 8.36 11.34 7 11 C6.67 11.99 6.34 12.98 6 14 C3.66666667 11.66666667 1.33333333 9.33333333 -1 7 C-0.34 6.67 0.32 6.34 1 6 C0.67 4.02 0.34 2.04 0 0 Z " fill="#247BAE" transform="translate(104,43)"/>
<path d="M0 0 C0.33 1.32 0.66 2.64 1 4 C0.01 4.495 0.01 4.495 -1 5 C-1 10.94 -1 16.88 -1 23 C-3.82726984 20.17273016 -3.28971809 18.03224876 -3.32226562 14.16796875 C-3.31904297 13.28753906 -3.31582031 12.40710937 -3.3125 11.5 C-3.32861328 10.61957031 -3.34472656 9.73914062 -3.36132812 8.83203125 C-3.36197266 7.99027344 -3.36261719 7.14851563 -3.36328125 6.28125 C-3.36626221 5.50845703 -3.36924316 4.73566406 -3.37231445 3.93945312 C-3.24945068 3.29943359 -3.12658691 2.65941406 -3 2 C-2.01 1.34 -1.02 0.68 0 0 Z " fill="#24648C" transform="translate(23,17)"/>
<path d="M0 0 C1.32 0 2.64 0 4 0 C4 0.66 4 1.32 4 2 C2.71086513 2.67154933 1.41859796 3.33708859 0.125 4 C-0.59429687 4.37125 -1.31359375 4.7425 -2.0546875 5.125 C-4 6 -4 6 -6 6 C-5.34414811 9.60992379 -5.34414811 9.60992379 -4 13 C-6.475 12.01 -6.475 12.01 -9 11 C-9 9.02 -9 7.04 -9 5 C-8.43410156 4.72285156 -7.86820312 4.44570313 -7.28515625 4.16015625 C-6.55167969 3.79792969 -5.81820312 3.43570313 -5.0625 3.0625 C-3.96615234 2.52302734 -3.96615234 2.52302734 -2.84765625 1.97265625 C-1.03750973 1.13628173 -1.03750973 1.13628173 0 0 Z " fill="#256B90" transform="translate(83,29)"/>
<path d="M0 0 C5.2294827 2.18534101 7.98565115 4.8407369 11.375 9.1875 C11.82488281 9.74630859 12.27476563 10.30511719 12.73828125 10.88085938 C13.8352063 12.24618098 14.91899508 13.62203919 16 15 C15.67 15.66 15.34 16.32 15 17 C7.51708428 9.70159453 7.51708428 9.70159453 5 6 C4.01 6.495 4.01 6.495 3 7 C0 2.25 0 2.25 0 0 Z " fill="#2A6998" transform="translate(48,8)"/>
<path d="M0 0 C2.44989101 3.74235319 2.23086143 7.44225419 2.125 11.75 C2.11597656 12.44738281 2.10695313 13.14476563 2.09765625 13.86328125 C2.07419888 15.57566958 2.03833104 17.28788004 2 19 C1.01 18.34 0.02 17.68 -1 17 C-1.24950462 14.40990446 -1.32719737 12.0812871 -1.25 9.5 C-1.24484375 8.81035156 -1.2396875 8.12070313 -1.234375 7.41015625 C-1.15483526 2.30967052 -1.15483526 2.30967052 0 0 Z " fill="#2B6E98" transform="translate(20,73)"/>
<path d="M0 0 C1.32 0.33 2.64 0.66 4 1 C4 1.99 4 2.98 4 4 C-1.25714286 8 -1.25714286 8 -4 8 C-4.33 8.99 -4.66 9.98 -5 11 C-6.32 11 -7.64 11 -9 11 C-9 10.34 -9 9.68 -9 9 C-7.88625 8.443125 -6.7725 7.88625 -5.625 7.3125 C-2.84702448 5.74673198 -2.09463724 5.18104516 -0.5625 2.25 C-0.376875 1.5075 -0.19125 0.765 0 0 Z " fill="#2F6C86" transform="translate(58,40)"/>
<path d="M0 0 C1.99954746 -0.04254356 4.00041636 -0.04080783 6 0 C7 1 7 1 7.0625 4.5625 C7.041875 5.696875 7.02125 6.83125 7 8 C3.45325997 9.18224668 1.02477005 8.89329634 -2.6875 8.5625 C-3.86699219 8.46066406 -5.04648438 8.35882813 -6.26171875 8.25390625 C-7.16535156 8.17011719 -8.06898437 8.08632812 -9 8 C-9 7.67 -9 7.34 -9 7 C-4.05 7 0.9 7 6 7 C5.67 5.68 5.34 4.36 5 3 C2.50965614 1.70339566 2.50965614 1.70339566 0 1 C0 0.67 0 0.34 0 0 Z " fill="#1F597A" transform="translate(9,105)"/>
<path d="M0 0 C2.64 0.33 5.28 0.66 8 1 C8 2.65 8 4.3 8 6 C7.34 6 6.68 6 6 6 C6 5.01 6 4.02 6 3 C4.02 3.99 4.02 3.99 2 5 C2 5.66 2 6.32 2 7 C1.01 7 0.02 7 -1 7 C-1.125 2.25 -1.125 2.25 0 0 Z " fill="#B3C16A" transform="translate(56,51)"/>
<path d="M0 0 C2.31 0 4.62 0 7 0 C6.67 1.65 6.34 3.3 6 5 C2.25 6.125 2.25 6.125 0 5 C0 3.35 0 1.7 0 0 Z " fill="#2577A8" transform="translate(49,84)"/>
<path d="M0 0 C3.57490604 2.38327069 3.71218474 3.62488266 4.5625 7.6875 C4.706875 8.450625 4.85125 9.21375 5 10 C5.99 10 6.98 10 8 10 C8.33 11.32 8.66 12.64 9 14 C8.01 13.67 7.02 13.34 6 13 C6 12.34 6 11.68 6 11 C5.34 11 4.68 11 4 11 C2.4921875 9.03125 2.4921875 9.03125 0.875 6.5 C0.33617188 5.6646875 -0.20265625 4.829375 -0.7578125 3.96875 C-1.16773437 3.3190625 -1.57765625 2.669375 -2 2 C-1.34 2 -0.68 2 0 2 C0 1.34 0 0.68 0 0 Z " fill="#2377A6" transform="translate(67,34)"/>
<path d="M0 0 C0.66 0 1.32 0 2 0 C1.67 2.31 1.34 4.62 1 7 C1.66 7.33 2.32 7.66 3 8 C-0.3 7.67 -3.6 7.34 -7 7 C-6.67 6.01 -6.34 5.02 -6 4 C-4 3.25 -4 3.25 -2 3 C-1.67 3.33 -1.34 3.66 -1 4 C-0.67 2.68 -0.34 1.36 0 0 Z " fill="#1A6CA6" transform="translate(22,63)"/>
<path d="M0 0 C1.70884005 1.62339805 3.37446717 3.29319053 5 5 C5 5.66 5 6.32 5 7 C5.66 7 6.32 7 7 7 C8.625 9.5 8.625 9.5 10 12 C7.03824877 11.38722388 5.61941217 10.74627478 3 9 C1.83203125 7.0546875 1.83203125 7.0546875 0.8125 4.875 C0.29623047 3.78832031 0.29623047 3.78832031 -0.23046875 2.6796875 C-0.48441406 2.12539063 -0.73835938 1.57109375 -1 1 C-0.67 0.67 -0.34 0.34 0 0 Z " fill="#1E6082" transform="translate(105,41)"/>
<path d="M0 0 C-1.78881736 1.00508801 -3.58114696 2.00392736 -5.375 3 C-6.37273438 3.556875 -7.37046875 4.11375 -8.3984375 4.6875 C-11 6 -11 6 -13 6 C-13.33 5.34 -13.66 4.68 -14 4 C-14.99 3.34 -15.98 2.68 -17 2 C-15.0085944 1.61866701 -13.00720923 1.28674418 -11 1 C-10.67 1.33 -10.34 1.66 -10 2 C-8.906875 1.484375 -7.81375 0.96875 -6.6875 0.4375 C-3 -1 -3 -1 0 0 Z " fill="#2178AA" transform="translate(42,54)"/>
<path d="M0 0 C0.99 0 1.98 0 3 0 C3.33 0.99 3.66 1.98 4 3 C4.99 3.66 5.98 4.32 7 5 C7 5.66 7 6.32 7 7 C7.66 7 8.32 7 9 7 C9.33 8.32 9.66 9.64 10 11 C10.66 11 11.32 11 12 11 C11.67 11.99 11.34 12.98 11 14 C9.53618641 12.42173185 8.07914837 10.83717771 6.625 9.25 C5.81289063 8.36828125 5.00078125 7.4865625 4.1640625 6.578125 C2.3374152 4.40197479 1.10212006 2.59179881 0 0 Z " fill="#246183" transform="translate(46,16)"/>
<path d="M0 0 C0.8353125 0.7734375 0.8353125 0.7734375 1.6875 1.5625 C3.91276921 3.27060758 3.91276921 3.27060758 6.5625 2.75 C8.38235796 2.19004371 10.19365268 1.60211577 12 1 C12 1.99 12 2.98 12 4 C8.535 5.485 8.535 5.485 5 7 C2.5 5.1875 2.5 5.1875 0 3 C0 2.01 0 1.02 0 0 Z " fill="#236382" transform="translate(64,25)"/>
<path d="M0 0 C-1 3 -1 3 -3.72265625 4.60546875 C-4.82480469 5.12753906 -5.92695312 5.64960938 -7.0625 6.1875 C-8.16722656 6.71730469 -9.27195313 7.24710938 -10.41015625 7.79296875 C-11.26480469 8.19128906 -12.11945312 8.58960938 -13 9 C-11.56356879 5.34646845 -9.94164969 4.06021834 -6.5 2.25 C-5.7059375 1.82203125 -4.911875 1.3940625 -4.09375 0.953125 C-2 0 -2 0 0 0 Z " fill="#286382" transform="translate(43,15)"/>
<path d="M0 0 C1.65 0.33 3.3 0.66 5 1 C5 2.32 5 3.64 5 5 C0.05 5 -4.9 5 -10 5 C-10 4.67 -10 4.34 -10 4 C-4.555 3.505 -4.555 3.505 1 3 C0.67 2.01 0.34 1.02 0 0 Z " fill="#2678A8" transform="translate(10,107)"/>
<path d="M0 0 C1.11375 0.3403125 1.11375 0.3403125 2.25 0.6875 C1.6875 2.625 1.6875 2.625 0.25 4.6875 C-3.375 5.4375 -3.375 5.4375 -6.75 5.6875 C-6.75 2.6875 -6.75 2.6875 -5.0625 0.9375 C-2.75 -0.3125 -2.75 -0.3125 0 0 Z " fill="#187FAE" transform="translate(35.75,51.3125)"/>
<path d="M0 0 C0 0.66 0 1.32 0 2 C0.66 2.33 1.32 2.66 2 3 C-0.31 3.33 -2.62 3.66 -5 4 C-5 4.66 -5 5.32 -5 6 C-5.66 5.67 -6.32 5.34 -7 5 C-6.67 3.68 -6.34 2.36 -6 1 C-3.92446352 0.4465236 -2.15634036 0 0 0 Z " fill="#207FB7" transform="translate(35,15)"/>
<path d="M0 0 C0.33 0 0.66 0 1 0 C1 3.3 1 6.6 1 10 C-1.64 10 -4.28 10 -7 10 C-7.33 9.34 -7.66 8.68 -8 8 C-6.02 8 -4.04 8 -2 8 C-1.34 5.36 -0.68 2.72 0 0 Z " fill="#266083" transform="translate(94,91)"/>
<path d="M0 0 C1.98 0.66 3.96 1.32 6 2 C5.67 3.98 5.34 5.96 5 8 C3.68 7.67 2.36 7.34 1 7 C1.33 5.68 1.66 4.36 2 3 C1.34 2.67 0.68 2.34 0 2 C0 1.34 0 0.68 0 0 Z " fill="#296A95" transform="translate(63,71)"/>
<path d="M0 0 C0.99 0 1.98 0 3 0 C3.33 1.32 3.66 2.64 4 4 C1.525 5.485 1.525 5.485 -1 7 C-1.625 4.625 -1.625 4.625 -2 2 C-1.34 1.34 -0.68 0.68 0 0 Z " fill="#95A046" transform="translate(59,54)"/>
<path d="M0 0 C3.26008643 3.16952847 6.22237877 6.39937989 9 10 C7.68 10 6.36 10 5 10 C4.67 9.01 4.34 8.02 4 7 C3.01 6.34 2.02 5.68 1 5 C0.3125 2.375 0.3125 2.375 0 0 Z " fill="#1D5877" transform="translate(79,42)"/>
<path d="M0 0 C0 0.66 0 1.32 0 2 C-6.45 6.09326923 -6.45 6.09326923 -9.234375 5.62109375 C-9.81703125 5.41613281 -10.3996875 5.21117187 -11 5 C-9.73461631 4.15841464 -8.46246221 3.32700252 -7.1875 2.5 C-6.47980469 2.0359375 -5.77210937 1.571875 -5.04296875 1.09375 C-3 0 -3 0 0 0 Z " fill="#276183" transform="translate(49,50)"/>
<path d="M0 0 C0.99 0 1.98 0 3 0 C3.33 1.65 3.66 3.3 4 5 C2.35 5 0.7 5 -1 5 C-0.67 3.35 -0.34 1.7 0 0 Z " fill="#247BAD" transform="translate(62,84)"/>
<path d="M0 0 C-0.33 0.99 -0.66 1.98 -1 3 C-4.33333333 3.66666667 -7.66666667 4.33333333 -11 5 C-7.49434208 1.32740599 -5.1720171 -0.27956849 0 0 Z " fill="#2A6486" transform="translate(38,11)"/>
<path d="M0 0 C-0.33 2.97 -0.66 5.94 -1 9 C-2.5625 7.25 -2.5625 7.25 -4 5 C-3.8125 2.8125 -3.8125 2.8125 -3 1 C-1 0 -1 0 0 0 Z " fill="#1D62B1" transform="translate(23,37)"/>
<path d="M0 0 C0.99 0.495 0.99 0.495 2 1 C2 1.99 2 2.98 2 4 C3.32 4 4.64 4 6 4 C6 4.66 6 5.32 6 6 C4.34385343 6.38218767 2.67542976 6.71395102 1 7 C0 6 0 6 -0.0625 2.9375 C-0.041875 1.968125 -0.02125 0.99875 0 0 Z " fill="#1E72A1" transform="translate(82,48)"/>
<path d="M0 0 C2.53910197 0.38520564 3.72751123 0.70097943 5.484375 2.62890625 C5.90203125 3.26699219 6.3196875 3.90507812 6.75 4.5625 C7.17796875 5.20316406 7.6059375 5.84382813 8.046875 6.50390625 C8.36140625 6.99761719 8.6759375 7.49132812 9 8 C4.7257442 6.4169423 2.73468206 3.49431596 0 0 Z " fill="#315C7A" transform="translate(85,20)"/>
<path d="M0 0 C2.64 0.33 5.28 0.66 8 1 C8 1.66 8 2.32 8 3 C5.36 3 2.72 3 0 3 C0 2.01 0 1.02 0 0 Z " fill="#1A4A6B" transform="translate(60,88)"/>
<path d="M0 0 C1.37562854 1.28965176 2.70766393 2.62689293 4 4 C4 4.66 4 5.32 4 6 C4.66 6.33 5.32 6.66 6 7 C4.68 7 3.36 7 2 7 C0 4 0 4 0 0 Z " fill="#195778" transform="translate(88,52)"/>
<path d="M0 0 C1.32 0.99 2.64 1.98 4 3 C3.67 4.32 3.34 5.64 3 7 C2.01 7 1.02 7 0 7 C0 4.69 0 2.38 0 0 Z " fill="#26729E" transform="translate(20,43)"/>
<path d="M0 0 C2.33944736 0.28730055 4.6739143 0.61936779 7 1 C7 1.66 7 2.32 7 3 C5.68 2.67 4.36 2.34 3 2 C2.67 2.99 2.34 3.98 2 5 C1.01 3.68 0.02 2.36 -1 1 C-0.67 0.67 -0.34 0.34 0 0 Z " fill="#1C75AA" transform="translate(108,52)"/>
<path d="M0 0 C3.00765886 2.84936103 5.27845212 5.23511958 7 9 C5.82460004 8.07347299 4.65989423 7.13336613 3.5 6.1875 C2.52546875 5.40439453 2.52546875 5.40439453 1.53125 4.60546875 C0 3 0 3 0 0 Z " fill="#2E6086" transform="translate(57,16)"/>
</svg>
